<?xml version="1.0" encoding="UTF-8" standalone="no"?>
<!DOCTYPE svg PUBLIC "-//W3C//DTD SVG 1.1//EN"
 "http://www.w3.org/Graphics/SVG/1.1/DTD/svg11.dtd">
<!-- Generated by graphviz version 2.40.1 (20161225.0304)
 -->
<!-- Title: G Pages: 1 -->
<svg width="253pt" height="62pt"
 viewBox="0.00 0.00 253.12 61.98" xmlns="http://www.w3.org/2000/svg" xmlns:xlink="http://www.w3.org/1999/xlink">
<g id="graph0" class="graph" transform="scale(1 1) rotate(0) translate(4 57.9811)">
<title>G</title>
<!-- <polygon fill="#ffffff" stroke="transparent" points="-4,4 -4,-57.9811 249.118,-57.9811 249.118,4 -4,4"/> -->
<!-- 0 -->
<g id="node1" class="node">
<title>0</title>
<ellipse fill="#4b8486" stroke="#16272d" stroke-width="2" cx="27" cy="-34.7478" rx="27" ry="19.4695"/>
<text text-anchor="middle" x="27" y="-29.9478" font-family="Helvetica,sans-Serif" font-size="16.00" fill="#ffffff">0</text>
</g>
<!-- 1 -->
<g id="node2" class="node">
<title>1</title>
<ellipse fill="#4b8486" stroke="#16272d" stroke-width="2" cx="122.559" cy="-34.7478" rx="27" ry="19.4695"/>
<text text-anchor="middle" x="122.559" y="-29.9478" font-family="Helvetica,sans-Serif" font-size="16.00" fill="#ffffff">1</text>
</g>
<!-- 0&#45;&gt;1 -->
<g id="edge1" class="edge">
<title>0&#45;&gt;1</title>
<path fill="none" stroke="#16272d" stroke-width="2" d="M54.1278,-34.7478C67.0396,-34.7478 82.4429,-34.7478 95.3634,-34.7478"/>
</g>
<!-- 1&#45;&gt;0 -->
<g id="edge5" class="edge">
<title>1&#45;&gt;0</title>
<path fill="none" stroke="#e23d31" stroke-width="2" stroke-dasharray="5,2" d="M99.1455,-24.7223C92.3139,-22.2663 84.7495,-19.988 77.559,-18.7478 71.2478,-17.6592 64.6334,-18.3436 58.3465,-19.9178"/>
<polygon fill="#e23d31" stroke="#e23d31" stroke-width="2" points="57.2648,-16.5891 48.8275,-22.997 59.4193,-23.2493 57.2648,-16.5891"/>
<text text-anchor="middle" x="74.7795" y="-21.7478" font-family="Helvetica,sans-Serif" font-size="10.00" fill="#e23d31">3</text>
</g>
<!-- 2 -->
<g id="node3" class="node">
<title>2</title>
<ellipse fill="#4b8486" stroke="#16272d" stroke-width="2" cx="218.118" cy="-34.7478" rx="27" ry="19.4695"/>
<text text-anchor="middle" x="218.118" y="-29.9478" font-family="Helvetica,sans-Serif" font-size="16.00" fill="#ffffff">2</text>
</g>
<!-- 1&#45;&gt;2 -->
<g id="edge2" class="edge">
<title>1&#45;&gt;2</title>
<path fill="none" stroke="#16272d" stroke-width="2" d="M149.6868,-34.7478C162.5986,-34.7478 178.0019,-34.7478 190.9224,-34.7478"/>
</g>
<!-- 1&#45;&gt;2 -->
<g id="edge3" class="edge">
<title>1&#45;&gt;2</title>
<path fill="none" stroke="#e23d31" stroke-width="2" stroke-dasharray="5,2" d="M145.9725,-24.7223C152.8041,-22.2663 160.3685,-19.988 167.559,-18.7478 173.8702,-17.6592 180.4846,-18.3436 186.7715,-19.9178"/>
<polygon fill="#e23d31" stroke="#e23d31" stroke-width="2" points="185.6987,-23.2493 196.2905,-22.997 187.8532,-16.5891 185.6987,-23.2493"/>
<text text-anchor="middle" x="170.3385" y="-21.7478" font-family="Helvetica,sans-Serif" font-size="10.00" fill="#e23d31">1</text>
</g>
<!-- 2&#45;&gt;1 -->
<g id="edge4" class="edge">
<title>2&#45;&gt;1</title>
<path fill="none" stroke="#e23d31" stroke-width="2" stroke-dasharray="5,2" d="M202.0458,-19.0713C194.0392,-12.3476 183.7984,-5.2442 173.118,-1.7478 162.4404,1.7478 151.8407,-3.4691 143.1255,-10.7154"/>
<polygon fill="#e23d31" stroke="#e23d31" stroke-width="2" points="140.5545,-8.3299 135.7035,-17.749 145.3695,-13.4109 140.5545,-8.3299"/>
<text text-anchor="middle" x="170.3385" y="-4.7478" font-family="Helvetica,sans-Serif" font-size="10.00" fill="#e23d31">2</text>
</g>
</g>
</svg>