<?xml version="1.0" encoding="UTF-8" standalone="no"?>
<!DOCTYPE svg PUBLIC "-//W3C//DTD SVG 1.1//EN"
 "http://www.w3.org/Graphics/SVG/1.1/DTD/svg11.dtd">
<!-- Generated by graphviz version 2.40.1 (20161225.0304)
 -->
<!-- Title: G Pages: 1 -->
<svg width="253pt" height="91pt"
 viewBox="0.00 0.00 253.12 90.88" xmlns="http://www.w3.org/2000/svg" xmlns:xlink="http://www.w3.org/1999/xlink">
<g id="graph0" class="graph" transform="scale(1 1) rotate(0) translate(4 86.8831)">
<title>G</title>
<!-- <polygon fill="#ffffff" stroke="transparent" points="-4,4 -4,-86.8831 249.118,-86.8831 249.118,4 -4,4"/> -->
<!-- 0 -->
<g id="node1" class="node">
<title>0</title>
<ellipse fill="#4b8486" stroke="#16272d" stroke-width="2" cx="27" cy="-63.6498" rx="27" ry="19.4695"/>
<text text-anchor="middle" x="27" y="-58.8498" font-family="Helvetica,sans-Serif" font-size="16.00" fill="#ffffff">0</text>
</g>
<!-- 1 -->
<g id="node2" class="node">
<title>1</title>
<ellipse fill="#4b8486" stroke="#16272d" stroke-width="2" cx="122.559" cy="-63.6498" rx="27" ry="19.4695"/>
<text text-anchor="middle" x="122.559" y="-58.8498" font-family="Helvetica,sans-Serif" font-size="16.00" fill="#ffffff">1</text>
</g>
<!-- 0&#45;&gt;1 -->
<g id="edge1" class="edge">
<title>0&#45;&gt;1</title>
<path fill="none" stroke="#16272d" stroke-width="2" d="M54.1278,-63.6498C67.0396,-63.6498 82.4429,-63.6498 95.3634,-63.6498"/>
</g>
<!-- 0&#45;&gt;1 -->
<g id="edge4" class="edge">
<title>0&#45;&gt;1</title>
<path fill="none" stroke="#e23d31" stroke-width="2" stroke-dasharray="5,2" d="M50.4135,-53.6243C57.2451,-51.1683 64.8095,-48.8901 72,-47.6498 78.3112,-46.5612 84.9256,-47.2456 91.2125,-48.8198"/>
<polygon fill="#e23d31" stroke="#e23d31" stroke-width="2" points="90.1397,-52.1513 100.7315,-51.8991 92.2942,-45.4911 90.1397,-52.1513"/>
<text text-anchor="middle" x="74.7795" y="-50.6498" font-family="Helvetica,sans-Serif" font-size="10.00" fill="#e23d31">2</text>
</g>
<!-- 1&#45;&gt;0 -->
<g id="edge3" class="edge">
<title>1&#45;&gt;0</title>
<path fill="none" stroke="#e23d31" stroke-width="2" stroke-dasharray="5,2" d="M114.72,-45.2205C107.4352,-30.7027 95.0626,-11.4884 77.559,-2.6498 59.41,6.5147 45.3637,-15.2401 36.7329,-35.2644"/>
<polygon fill="#e23d31" stroke="#e23d31" stroke-width="2" points="33.379,-34.2268 32.9368,-44.8124 39.8838,-36.813 33.379,-34.2268"/>
<text text-anchor="middle" x="74.7795" y="-5.6498" font-family="Helvetica,sans-Serif" font-size="10.00" fill="#e23d31">1</text>
</g>
<!-- 2 -->
<g id="node3" class="node">
<title>2</title>
<ellipse fill="#4b8486" stroke="#16272d" stroke-width="2" cx="218.118" cy="-63.6498" rx="27" ry="19.4695"/>
<text text-anchor="middle" x="218.118" y="-58.8498" font-family="Helvetica,sans-Serif" font-size="16.00" fill="#ffffff">2</text>
</g>
<!-- 1&#45;&gt;2 -->
<g id="edge2" class="edge">
<title>1&#45;&gt;2</title>
<path fill="none" stroke="#16272d" stroke-width="2" d="M149.6868,-63.6498C162.5986,-63.6498 178.0019,-63.6498 190.9224,-63.6498"/>
</g>
<!-- 1&#45;&gt;2 -->
<g id="edge5" class="edge">
<title>1&#45;&gt;2</title>
<path fill="none" stroke="#e23d31" stroke-width="2" stroke-dasharray="5,2" d="M145.9725,-53.6243C152.8041,-51.1683 160.3685,-48.8901 167.559,-47.6498 173.8702,-46.5612 180.4846,-47.2456 186.7715,-48.8198"/>
<polygon fill="#e23d31" stroke="#e23d31" stroke-width="2" points="185.6987,-52.1513 196.2905,-51.8991 187.8532,-45.4911 185.6987,-52.1513"/>
<text text-anchor="middle" x="170.3385" y="-50.6498" font-family="Helvetica,sans-Serif" font-size="10.00" fill="#e23d31">3</text>
</g>
</g>
</svg>