<?xml version="1.0" encoding="UTF-8" standalone="no"?>
<!DOCTYPE svg PUBLIC "-//W3C//DTD SVG 1.1//EN"
 "http://www.w3.org/Graphics/SVG/1.1/DTD/svg11.dtd">
<!-- Generated by graphviz version 2.40.1 (20161225.0304)
 -->
<!-- Title: G Pages: 1 -->
<svg width="538pt" height="270pt"
 viewBox="0.00 0.00 538.45 269.87" xmlns="http://www.w3.org/2000/svg" xmlns:xlink="http://www.w3.org/1999/xlink">
<g id="graph0" class="graph" transform="scale(1 1) rotate(0) translate(4 265.8664)">
<title>G</title>
<!-- <polygon fill="#ffffff" stroke="transparent" points="-4,4 -4,-265.8664 534.4479,-265.8664 534.4479,4 -4,4"/> -->
<!-- 0 -->
<g id="node1" class="node">
<title>0</title>
<ellipse fill="#4b8486" stroke="#16272d" stroke-width="3" cx="264.7239" cy="-242.6331" rx="59.9487" ry="19.4695"/>
<text text-anchor="middle" x="264.7239" y="-237.8331" font-family="Helvetica,sans-Serif" font-size="16.00" fill="#ffffff">f(1, [010])</text>
</g>
<!-- 1 -->
<g id="node2" class="node">
<title>1</title>
<ellipse fill="#4b8486" stroke="#16272d" stroke-width="3" cx="196.7239" cy="-168.1665" rx="59.9487" ry="19.4695"/>
<text text-anchor="middle" x="196.7239" y="-163.3665" font-family="Helvetica,sans-Serif" font-size="16.00" fill="#ffffff">f(0, [110])</text>
</g>
<!-- 0&#45;&gt;1 -->
<g id="edge1" class="edge">
<title>0&#45;&gt;1</title>
<path fill="none" stroke="#16272d" stroke-width="3" d="M247.5647,-223.8421C239.3687,-214.8667 229.426,-203.9785 220.5147,-194.2197"/>
<polygon fill="#16272d" stroke="#16272d" stroke-width="3" points="222.9699,-191.7179 213.6422,-186.6936 217.8008,-196.4382 222.9699,-191.7179"/>
</g>
<!-- 2 -->
<g id="node3" class="node">
<title>2</title>
<ellipse fill="#4b8486" stroke="#16272d" stroke-width="3" cx="333.7239" cy="-168.1665" rx="59.9487" ry="19.4695"/>
<text text-anchor="middle" x="333.7239" y="-163.3665" font-family="Helvetica,sans-Serif" font-size="16.00" fill="#ffffff">f(2, [011])</text>
</g>
<!-- 0&#45;&gt;2 -->
<g id="edge2" class="edge">
<title>0&#45;&gt;2</title>
<path fill="none" stroke="#16272d" stroke-width="3" d="M282.1355,-223.8421C290.4521,-214.8667 300.5409,-203.9785 309.5833,-194.2197"/>
<polygon fill="#16272d" stroke="#16272d" stroke-width="3" points="312.3275,-196.4077 316.5569,-186.6936 307.1929,-191.65 312.3275,-196.4077"/>
</g>
<!-- 3 -->
<g id="node4" class="node">
<title>3</title>
<ellipse fill="#4b8486" stroke="#16272d" stroke-width="3" cx="196.7239" cy="-93.6999" rx="59.9487" ry="19.4695"/>
<text text-anchor="middle" x="196.7239" y="-88.8999" font-family="Helvetica,sans-Serif" font-size="16.00" fill="#ffffff">f(1, [110])</text>
</g>
<!-- 1&#45;&gt;3 -->
<g id="edge3" class="edge">
<title>1&#45;&gt;3</title>
<path fill="none" stroke="#16272d" stroke-width="3" d="M196.7239,-148.6013C196.7239,-140.8198 196.7239,-131.698 196.7239,-123.1492"/>
<polygon fill="#16272d" stroke="#16272d" stroke-width="3" points="200.224,-123.1344 196.7239,-113.1345 193.224,-123.1345 200.224,-123.1344"/>
</g>
<!-- 4 -->
<g id="node5" class="node">
<title>4</title>
<ellipse fill="#4b8486" stroke="#16272d" stroke-width="3" cx="333.7239" cy="-93.6999" rx="59.9487" ry="19.4695"/>
<text text-anchor="middle" x="333.7239" y="-88.8999" font-family="Helvetica,sans-Serif" font-size="16.00" fill="#ffffff">f(1, [011])</text>
</g>
<!-- 2&#45;&gt;4 -->
<g id="edge4" class="edge">
<title>2&#45;&gt;4</title>
<path fill="none" stroke="#16272d" stroke-width="3" d="M333.7239,-148.6013C333.7239,-140.8198 333.7239,-131.698 333.7239,-123.1492"/>
<polygon fill="#16272d" stroke="#16272d" stroke-width="3" points="337.224,-123.1344 333.7239,-113.1345 330.224,-123.1345 337.224,-123.1344"/>
</g>
<!-- 5 -->
<g id="node6" class="node">
<title>5</title>
<ellipse fill="#e23d31" stroke="#16272d" stroke-width="3" cx="59.7239" cy="-19.2333" rx="59.9487" ry="19.4695"/>
<text text-anchor="middle" x="59.7239" y="-14.4333" font-family="Helvetica,sans-Serif" font-size="16.00" fill="#ffffff">f(0, [110])</text>
</g>
<!-- 3&#45;&gt;5 -->
<g id="edge5" class="edge">
<title>3&#45;&gt;5</title>
<path fill="none" stroke="#16272d" stroke-width="3" d="M165.9785,-76.9882C146.236,-66.2571 120.4088,-52.2187 99.1614,-40.6696"/>
<polygon fill="#16272d" stroke="#16272d" stroke-width="3" points="100.8243,-37.5899 90.3668,-35.8893 97.4813,-43.7401 100.8243,-37.5899"/>
</g>
<!-- 6 -->
<g id="node7" class="node">
<title>6</title>
<ellipse fill="#4b8486" stroke="#16272d" stroke-width="3" cx="196.7239" cy="-19.2333" rx="59.9487" ry="19.4695"/>
<text text-anchor="middle" x="196.7239" y="-14.4333" font-family="Helvetica,sans-Serif" font-size="16.00" fill="#ffffff">f(2, [111])</text>
</g>
<!-- 3&#45;&gt;6 -->
<g id="edge6" class="edge">
<title>3&#45;&gt;6</title>
<path fill="none" stroke="#16272d" stroke-width="3" d="M196.7239,-74.1347C196.7239,-66.3532 196.7239,-57.2314 196.7239,-48.6826"/>
<polygon fill="#16272d" stroke="#16272d" stroke-width="3" points="200.224,-48.6678 196.7239,-38.6679 193.224,-48.6679 200.224,-48.6678"/>
</g>
<!-- 7 -->
<g id="node8" class="node">
<title>7</title>
<ellipse fill="#4b8486" stroke="#16272d" stroke-width="3" cx="333.7239" cy="-19.2333" rx="59.9487" ry="19.4695"/>
<text text-anchor="middle" x="333.7239" y="-14.4333" font-family="Helvetica,sans-Serif" font-size="16.00" fill="#ffffff">f(0, [111])</text>
</g>
<!-- 4&#45;&gt;7 -->
<g id="edge7" class="edge">
<title>4&#45;&gt;7</title>
<path fill="none" stroke="#16272d" stroke-width="3" d="M333.7239,-74.1347C333.7239,-66.3532 333.7239,-57.2314 333.7239,-48.6826"/>
<polygon fill="#16272d" stroke="#16272d" stroke-width="3" points="337.224,-48.6678 333.7239,-38.6679 330.224,-48.6679 337.224,-48.6678"/>
</g>
<!-- 8 -->
<g id="node9" class="node">
<title>8</title>
<ellipse fill="#e23d31" stroke="#16272d" stroke-width="3" cx="470.7239" cy="-19.2333" rx="59.9487" ry="19.4695"/>
<text text-anchor="middle" x="470.7239" y="-14.4333" font-family="Helvetica,sans-Serif" font-size="16.00" fill="#ffffff">f(2, [011])</text>
</g>
<!-- 4&#45;&gt;8 -->
<g id="edge8" class="edge">
<title>4&#45;&gt;8</title>
<path fill="none" stroke="#16272d" stroke-width="3" d="M364.4694,-76.9882C384.2119,-66.2571 410.039,-52.2187 431.2865,-40.6696"/>
<polygon fill="#16272d" stroke="#16272d" stroke-width="3" points="432.9666,-43.7401 440.0811,-35.8893 429.6236,-37.5899 432.9666,-43.7401"/>
</g>
</g>
</svg>